<mxfile host="65bd71144e">
    <diagram id="v48XJn3UmZ6kGl3JZtfX" name="Page-1">
        <mxGraphModel dx="745" dy="403" grid="1" gridSize="10" guides="1" tooltips="1" connect="1" arrows="1" fold="1" page="1" pageScale="1" pageWidth="1000" pageHeight="700" math="0" shadow="0">
            <root>
                <mxCell id="0"/>
                <mxCell id="1" parent="0"/>
                <mxCell id="7" style="edgeStyle=none;html=1;endArrow=none;endFill=0;dashed=1;" edge="1" parent="1" source="2">
                    <mxGeometry relative="1" as="geometry">
                        <mxPoint x="259.9999999999998" y="650.5890187230603" as="targetPoint"/>
                    </mxGeometry>
                </mxCell>
                <mxCell id="2" value="" style="shape=umlActor;verticalLabelPosition=bottom;verticalAlign=top;html=1;" vertex="1" parent="1">
                    <mxGeometry x="245" y="49" width="30" height="60" as="geometry"/>
                </mxCell>
                <mxCell id="5" value="Object" style="html=1;" vertex="1" parent="1">
                    <mxGeometry x="405" y="54" width="110" height="50" as="geometry"/>
                </mxCell>
                <mxCell id="6" value="Object" style="html=1;" vertex="1" parent="1">
                    <mxGeometry x="645" y="54" width="110" height="50" as="geometry"/>
                </mxCell>
                <mxCell id="8" style="edgeStyle=none;html=1;endArrow=none;endFill=0;dashed=1;" edge="1" parent="1" source="5">
                    <mxGeometry relative="1" as="geometry">
                        <mxPoint x="460" y="646" as="targetPoint"/>
                        <mxPoint x="459.65999999999974" y="103.99999999999989" as="sourcePoint"/>
                    </mxGeometry>
                </mxCell>
                <mxCell id="9" style="edgeStyle=none;html=1;endArrow=none;endFill=0;dashed=1;" edge="1" parent="1" source="6">
                    <mxGeometry relative="1" as="geometry">
                        <mxPoint x="699.47" y="646" as="targetPoint"/>
                        <mxPoint x="699.47" y="103.99999999999989" as="sourcePoint"/>
                        <Array as="points">
                            <mxPoint x="699" y="199"/>
                        </Array>
                    </mxGeometry>
                </mxCell>
            </root>
        </mxGraphModel>
    </diagram>
</mxfile>